<?xml version="1.0" encoding="utf-8"?>
<!-- Generator: Adobe Illustrator 13.0.0, SVG Export Plug-In . SVG Version: 6.00 Build 14948)  -->
<!DOCTYPE svg PUBLIC "-//W3C//DTD SVG 1.1//EN" "http://www.w3.org/Graphics/SVG/1.1/DTD/svg11.dtd">
<svg version="1.1" id="Layer_1" xmlns="http://www.w3.org/2000/svg" xmlns:xlink="http://www.w3.org/1999/xlink" x="0px" y="0px"
	 width="1024px" height="768px" viewBox="0 0 1024 768" enable-background="new 0 0 1024 768" xml:space="preserve">
<g>
	<g>
		<path fill="#78C19B" d="M217.464,457.333c68.999-14.665,113.048-82.48,98.374-151.478l-7.762,1.649
			c13.752,64.707-27.554,128.306-92.264,142.062c-64.705,13.756-128.311-27.551-142.063-92.259l-7.77,1.66
			C80.646,427.964,148.468,472.001,217.464,457.333z"/>
		<g>
			<path fill="#CE4646" d="M301.381,308.923l-105.642,22.458l9.07,42.68l-9.211,1.961l-9.073-42.682L80.449,355.89
				c13.059,60.89,72.959,99.726,133.896,86.77C275.284,429.705,314.215,369.864,301.381,308.923z M207.366,408.73
				c-19.301,4.1-38.276-8.219-42.38-27.511c-3.212-15.124,3.689-30.021,16.101-37.737l1.813,8.536
				c-8.053,6.32-12.299,16.834-10.032,27.523c3.181,14.954,17.878,24.491,32.819,21.312c14.949-3.178,24.493-17.863,21.313-32.818
				c-2.279-10.716-10.485-18.624-20.456-21.083l-1.817-8.526c14.527,1.97,26.931,12.773,30.154,27.939
				C238.977,385.658,226.662,404.633,207.366,408.73z"/>
		</g>
	</g>
	<path fill="#CE4646" d="M388.728,342.063v6.471c4.273-4.611,9.578-6.901,15.891-6.901c7.514,0,13.063,2.971,16.658,8.906
		c2.944-3.078,5.89-5.335,8.842-6.766c2.961-1.432,6.301-2.141,10.009-2.141c5.592,0,10.001,1.711,13.229,5.141
		c3.232,3.429,4.848,8.257,4.848,14.485v32.379H433.18v-30.8c0-1.831-0.449-3.249-1.341-4.258c-0.899-1.021-2.081-1.521-3.53-1.521
		c-1.639,0-3.251,0.551-4.843,1.67v34.909h-25.021v-30.8c0-1.8-0.43-3.22-1.306-4.239c-0.872-1.028-2.065-1.54-3.572-1.54
		c-1.573,0-3.186,0.579-4.84,1.75v34.829h-26.473v-51.574H388.728z"/>
	<path fill="#CE4646" d="M520.607,373.972v9.038c-5.801,7.599-14.135,11.398-25.016,11.398c-8.963,0-16.182-2.492-21.622-7.469
		c-5.467-4.988-8.188-11.556-8.188-19.692c0-7.738,2.503-14.049,7.518-18.935c5.01-4.879,11.52-7.319,19.51-7.319
		c4.088,0,7.866,0.68,11.354,2.051c3.479,1.368,6.49,3.389,9.036,6.037c2.534,2.66,4.41,5.747,5.611,9.258
		c1.197,3.508,1.797,7.798,1.797,12.856H493.58c0.973,2.619,2.597,4.677,4.887,6.165c2.278,1.479,4.891,2.229,7.839,2.229
		C512.246,379.59,517.012,377.723,520.607,373.972 M491.996,362.147h12.465c-0.111-2.571-0.748-4.578-1.902-6.02
		c-1.158-1.428-2.666-2.158-4.522-2.158c-1.619,0-3.037,0.689-4.238,2.069C492.597,357.439,491.996,359.468,491.996,362.147"/>
	<rect x="528.881" y="328.268" fill="#CE4646" width="26.473" height="65.369"/>
	<path fill="#CE4646" d="M591.928,394.408c-8.172,0-14.898-2.463-20.199-7.391c-5.293-4.929-7.939-11.347-7.939-19.264
		c0-7.896,2.604-14.335,7.838-19.312c5.221-4.97,11.998-7.449,20.301-7.449c8.373,0,15.166,2.479,20.408,7.449
		c5.232,4.977,7.859,11.415,7.859,19.312c0,7.888-2.627,14.295-7.859,19.245C607.094,391.938,600.301,394.408,591.928,394.408
		 M591.928,361.336c-1.717,0-3.104,0.55-4.18,1.65c-1.066,1.101-1.598,2.519-1.598,4.261c0,1.747,0.531,3.155,1.598,4.246
		c1.076,1.089,2.463,1.618,4.18,1.618c1.74,0,3.158-0.529,4.24-1.618c1.088-1.091,1.631-2.499,1.631-4.246
		c0-1.771-0.543-3.203-1.631-4.282C595.086,361.878,593.668,361.336,591.928,361.336"/>
	<path fill="#CE4646" d="M654.848,342.063v6.471c4.459-4.611,9.783-6.901,15.977-6.901c6.029,0,10.654,1.682,13.863,5.029
		c3.209,3.358,4.813,8.339,4.813,14.936v32.04h-25.008v-30.071c0-4.287-1.635-6.429-4.887-6.429c-1.572,0-3.15,0.561-4.758,1.671
		v34.829h-26.477v-51.574H654.848z"/>
	<path fill="#78C19B" d="M769.527,342.063v14.476h-11.051v11.056c0,3.739,1.67,5.608,5.014,5.608c2.453,0,4.576-1.219,6.336-3.688
		v20.443c-4.17,2.74-9.242,4.109-15.197,4.109c-6.379,0-11.74-1.9-16.092-5.699c-4.352-3.798-6.533-9.016-6.533-15.685v-16.145
		h-10.791l0.01-14.476h10.781v-14.736h26.473v14.736H769.527z"/>
	<path fill="#78C19B" d="M830.564,373.972v9.038c-5.801,7.599-14.137,11.398-25.018,11.398c-8.957,0-16.172-2.492-21.629-7.469
		c-5.451-4.988-8.188-11.556-8.188-19.692c0-7.738,2.508-14.049,7.529-18.935c5.01-4.879,11.516-7.319,19.506-7.319
		c4.084,0,7.865,0.68,11.342,2.051c3.49,1.368,6.51,3.389,9.039,6.037c2.547,2.66,4.422,5.747,5.615,9.258
		c1.201,3.508,1.803,7.798,1.803,12.856h-27.02c0.961,2.619,2.588,4.677,4.875,6.165c2.285,1.479,4.893,2.229,7.838,2.229
		C822.197,379.59,826.969,377.723,830.564,373.972 M801.951,362.147h12.467c-0.113-2.571-0.76-4.578-1.906-6.02
		c-1.16-1.428-2.662-2.158-4.52-2.158c-1.627,0-3.037,0.689-4.238,2.069C802.553,357.439,801.951,359.468,801.951,362.147"/>
	<path fill="#78C19B" d="M886.633,344.071v22.623c-5.25-2.519-10.086-3.767-14.484-3.767c-2.529,0-4.514,0.399-5.928,1.207
		c-1.412,0.822-2.117,1.941-2.117,3.369c0,3.31,3.066,4.97,9.207,4.97c5.254,0,9.699-0.9,13.322-2.698v22.361
		c-5.17,1.51-10.699,2.271-16.572,2.271c-10.338,0-18.336-2.48-23.99-7.45c-5.66-4.97-8.482-11.287-8.482-18.935
		c0-7.656,2.697-14.073,8.096-19.264c5.4-5.177,12.635-7.767,21.723-7.767C873.719,340.993,880.123,342.023,886.633,344.071"/>
	<path fill="#78C19B" d="M922.4,328.268v20.516c4.082-4.772,9.297-7.151,15.637-7.151c5.85,0,10.469,1.711,13.852,5.141
		c3.391,3.429,5.076,8.196,5.076,14.313v32.551h-25.012v-29.821c0-4.328-1.67-6.508-5.014-6.508c-1.516,0-3.02,0.68-4.539,2.019
		v34.311h-26.514v-65.369H922.4z"/>
	<path d="M380.56,447.037c0,0.901-0.179,1.711-0.535,2.428c-0.36,0.701-0.883,1.313-1.569,1.813
		c-0.678,0.501-1.519,0.879-2.511,1.158c-0.992,0.27-2.127,0.4-3.395,0.4c-1.143,0-2.166-0.079-3.084-0.252
		c-0.919-0.168-1.736-0.428-2.426-0.828c-0.701-0.371-1.278-0.891-1.748-1.539c-0.477-0.65-0.813-1.439-1.038-2.398l2.445-0.543
		c0.17,0.752,0.426,1.354,0.763,1.822c0.346,0.469,0.768,0.838,1.268,1.107c0.512,0.273,1.089,0.451,1.725,0.553
		c0.643,0.091,1.344,0.139,2.096,0.139c0.787,0,1.516-0.071,2.193-0.209c0.666-0.148,1.26-0.37,1.759-0.67
		c0.492-0.291,0.884-0.661,1.167-1.12c0.271-0.44,0.418-0.979,0.418-1.622c0-0.668-0.178-1.217-0.534-1.637
		c-0.353-0.42-0.825-0.77-1.415-1.06c-0.597-0.281-1.278-0.52-2.05-0.71c-0.786-0.199-1.588-0.381-2.437-0.568
		c-0.807-0.202-1.604-0.411-2.398-0.633c-0.779-0.23-1.48-0.54-2.093-0.93c-0.62-0.387-1.12-0.877-1.496-1.469
		c-0.387-0.6-0.577-1.34-0.577-2.229c0-1.678,0.64-3.007,1.922-3.978c1.291-0.961,3.162-1.439,5.627-1.439
		c0.953,0,1.84,0.09,2.665,0.27c0.837,0.189,1.569,0.48,2.225,0.869c0.658,0.391,1.209,0.891,1.65,1.5
		c0.446,0.63,0.744,1.358,0.903,2.211l-2.402,0.311c-0.116-0.621-0.326-1.133-0.636-1.543c-0.303-0.418-0.689-0.74-1.144-0.988
		c-0.453-0.25-0.965-0.428-1.522-0.529c-0.546-0.111-1.132-0.16-1.739-0.16c-1.686,0-2.965,0.291-3.806,0.87
		c-0.856,0.579-1.274,1.368-1.274,2.351c0,0.598,0.143,1.086,0.426,1.479c0.295,0.378,0.693,0.709,1.193,0.967
		c0.504,0.262,1.112,0.482,1.829,0.671c0.725,0.182,1.512,0.369,2.371,0.568c0.864,0.2,1.732,0.421,2.585,0.659
		c0.856,0.242,1.631,0.571,2.317,0.971c0.686,0.411,1.235,0.921,1.654,1.56C380.35,445.278,380.56,446.076,380.56,447.037z"/>
	<path d="M405.506,452.447c-0.012-0.041-0.031-0.24-0.051-0.58c-0.027-0.341-0.054-0.732-0.081-1.17
		c-0.02-0.439-0.043-0.879-0.059-1.329c-0.02-0.451-0.034-0.8-0.034-1.03h-0.07c-0.806,1.538-1.794,2.678-2.964,3.398
		c-1.179,0.74-2.601,1.1-4.259,1.1c-1.325,0-2.449-0.209-3.359-0.619c-0.903-0.409-1.628-0.98-2.193-1.709
		c-0.554-0.721-0.953-1.551-1.201-2.5c-0.244-0.961-0.372-1.961-0.372-3.039v-12.016h2.581v11.477c0,0.898,0.089,1.748,0.282,2.528
		c0.194,0.788,0.504,1.461,0.935,2.019c0.43,0.561,0.995,1,1.693,1.33c0.686,0.309,1.538,0.482,2.542,0.482
		c0.895,0,1.716-0.185,2.487-0.531c0.764-0.352,1.426-0.842,1.976-1.469c0.559-0.62,0.992-1.353,1.318-2.189
		c0.325-0.841,0.48-1.752,0.48-2.721v-10.926h2.596v15.125c0,0.438,0,0.898,0.004,1.387c0.008,0.492,0.023,0.953,0.043,1.372
		c0.019,0.419,0.026,0.78,0.03,1.079c0.008,0.311,0.008,0.49,0.008,0.531H405.506z"/>
	<path d="M427.588,434.752c-0.875,0-1.646,0.221-2.302,0.659c-0.666,0.431-1.216,1.011-1.646,1.729
		c-0.445,0.73-0.768,1.561-0.984,2.5c-0.225,0.949-0.325,1.93-0.325,2.939v9.867h-2.623v-14.664c0-0.433-0.004-0.901-0.012-1.441
		c-0.016-0.531-0.02-1.029-0.023-1.518c-0.02-0.482-0.031-0.893-0.031-1.242c-0.016-0.339-0.016-0.56-0.016-0.629h2.392
		c0,0.052,0.008,0.261,0.042,0.629c0.008,0.39,0.027,0.811,0.047,1.279c0.016,0.482,0.027,0.961,0.05,1.441
		c0.016,0.49,0.027,0.848,0.027,1.088h0.07c0.263-0.8,0.562-1.499,0.891-2.1c0.333-0.599,0.736-1.087,1.201-1.469
		c0.477-0.398,1.004-0.689,1.608-0.889c0.593-0.209,1.286-0.311,2.054-0.311c0.573,0,1.026,0.072,1.356,0.199v2.15
		c-0.218-0.088-0.484-0.148-0.783-0.182C428.282,434.76,427.94,434.752,427.588,434.752z"/>
	<path d="M456.851,442.64c0,1.439-0.178,2.788-0.53,4.04c-0.349,1.259-0.888,2.338-1.601,3.248
		c-0.717,0.897-1.616,1.608-2.704,2.128c-1.085,0.521-2.353,0.78-3.81,0.78c-1.65,0-3.076-0.349-4.32-1.05
		c-1.24-0.711-2.193-1.678-2.852-2.908h-0.066c0,0.008,0,0.12,0.02,0.349c0,0.219,0,0.5,0.02,0.851c0,0.36,0,0.74,0.012,1.149
		c0.012,0.42,0.016,0.829,0.016,1.221v8.697h-2.624v-24.022c0-0.512,0-1.002-0.003-1.48c-0.016-0.471-0.02-0.89-0.031-1.259
		c-0.016-0.371-0.023-0.689-0.035-0.939c0-0.252,0-0.421,0-0.49h2.461c0.012,0.04,0.026,0.189,0.042,0.439
		c0.023,0.25,0.035,0.562,0.043,0.93c0.02,0.39,0.035,0.779,0.054,1.209c0.02,0.42,0.027,0.811,0.027,1.16h0.066
		c0.747-1.318,1.72-2.338,2.917-3.049c1.213-0.701,2.748-1.061,4.623-1.061c1.418,0,2.646,0.262,3.682,0.76
		c1.034,0.512,1.887,1.209,2.572,2.109c0.683,0.911,1.182,1.969,1.523,3.191C456.677,439.879,456.851,441.21,456.851,442.64z
		 M454.143,442.64c0-1.251-0.132-2.362-0.403-3.359c-0.271-0.979-0.678-1.819-1.229-2.509c-0.538-0.699-1.22-1.23-2.05-1.61
		c-0.829-0.37-1.79-0.558-2.887-0.558c-0.875,0-1.716,0.137-2.515,0.438c-0.79,0.281-1.491,0.75-2.096,1.4
		c-0.604,0.64-1.093,1.469-1.457,2.512c-0.364,1.038-0.539,2.316-0.539,3.826c0,1.49,0.171,2.741,0.535,3.756
		c0.356,1.033,0.833,1.852,1.43,2.492c0.601,0.629,1.294,1.081,2.097,1.359c0.794,0.27,1.631,0.41,2.503,0.41
		c2.131,0,3.759-0.7,4.897-2.109C453.569,447.275,454.143,445.269,454.143,442.64z"/>
	<path d="M475.47,434.752c-0.876,0-1.646,0.221-2.306,0.659c-0.666,0.431-1.209,1.011-1.654,1.729
		c-0.435,0.73-0.768,1.561-0.977,2.5c-0.213,0.949-0.322,1.93-0.322,2.939v9.867h-2.631v-14.664c0-0.433,0-0.901-0.012-1.441
		c-0.008-0.531-0.011-1.029-0.034-1.518c-0.004-0.482-0.016-0.893-0.023-1.242c-0.004-0.339-0.004-0.56-0.004-0.629h2.391
		c0,0.052,0.012,0.261,0.027,0.629c0.016,0.39,0.035,0.811,0.058,1.279c0.023,0.482,0.027,0.961,0.047,1.441
		c0.023,0.49,0.031,0.848,0.031,1.088h0.069c0.268-0.8,0.565-1.499,0.896-2.1c0.329-0.599,0.732-1.087,1.197-1.469
		c0.473-0.398,1.003-0.689,1.601-0.889c0.597-0.209,1.294-0.311,2.068-0.311c0.57,0,1.016,0.072,1.353,0.199v2.15
		c-0.229-0.088-0.488-0.148-0.786-0.182C476.147,434.76,475.818,434.752,475.47,434.752z"/>
	<path d="M486.288,427.685v-2.999h2.627v2.999H486.288z M486.288,452.447v-19.494h2.627v19.494H486.288z"/>
	<path d="M515.361,447.037c0,0.901-0.174,1.711-0.539,2.428c-0.352,0.701-0.879,1.313-1.561,1.813
		c-0.687,0.501-1.527,0.879-2.516,1.158c-0.996,0.27-2.135,0.4-3.402,0.4c-1.131,0-2.162-0.079-3.08-0.252
		c-0.918-0.168-1.729-0.428-2.422-0.828c-0.697-0.371-1.282-0.891-1.748-1.539c-0.469-0.65-0.821-1.439-1.038-2.398l2.438-0.543
		c0.182,0.752,0.434,1.354,0.771,1.822c0.338,0.469,0.768,0.838,1.268,1.107c0.508,0.273,1.085,0.451,1.725,0.553
		c0.643,0.091,1.336,0.139,2.088,0.139c0.791,0,1.531-0.071,2.197-0.209c0.67-0.148,1.26-0.37,1.752-0.67
		c0.508-0.291,0.895-0.661,1.178-1.12c0.275-0.44,0.414-0.979,0.414-1.622c0-0.668-0.174-1.217-0.534-1.637
		c-0.349-0.42-0.825-0.77-1.415-1.06c-0.588-0.281-1.273-0.52-2.053-0.71c-0.775-0.199-1.585-0.381-2.426-0.568
		c-0.803-0.202-1.615-0.411-2.398-0.633c-0.783-0.23-1.484-0.54-2.097-0.93c-0.612-0.387-1.116-0.877-1.504-1.469
		c-0.379-0.6-0.573-1.34-0.573-2.229c0-1.678,0.64-3.007,1.934-3.978c1.271-0.961,3.154-1.439,5.619-1.439
		c0.949,0,1.844,0.09,2.67,0.27c0.817,0.189,1.561,0.48,2.216,0.869c0.655,0.391,1.213,0.891,1.651,1.5
		c0.445,0.63,0.751,1.358,0.914,2.211l-2.414,0.311c-0.116-0.621-0.314-1.133-0.624-1.543c-0.313-0.418-0.697-0.74-1.155-0.988
		c-0.453-0.25-0.961-0.428-1.514-0.529c-0.555-0.111-1.137-0.16-1.744-0.16c-1.689,0-2.953,0.291-3.805,0.87
		c-0.861,0.579-1.283,1.368-1.283,2.351c0,0.598,0.15,1.086,0.438,1.479c0.287,0.378,0.686,0.709,1.189,0.967
		c0.508,0.262,1.116,0.482,1.833,0.671c0.722,0.182,1.515,0.369,2.372,0.568c0.867,0.2,1.724,0.421,2.58,0.659
		c0.86,0.242,1.627,0.571,2.313,0.971c0.683,0.411,1.243,0.921,1.658,1.56C515.152,445.278,515.361,446.076,515.361,447.037z"/>
	<path d="M525.824,427.685v-2.999h2.627v2.999H525.824z M525.824,452.447v-19.494h2.627v19.494H525.824z"/>
	<path d="M554.707,452.447v-11.418c0-0.918-0.09-1.767-0.291-2.547c-0.189-0.781-0.5-1.461-0.93-2.041
		c-0.434-0.571-0.996-1.019-1.686-1.328c-0.689-0.322-1.539-0.471-2.531-0.471c-0.922,0-1.762,0.17-2.529,0.54
		c-0.76,0.349-1.414,0.841-1.977,1.46c-0.555,0.617-0.977,1.338-1.295,2.178c-0.309,0.842-0.457,1.738-0.457,2.709v10.918h-2.635
		v-15.128c0-0.407,0-0.866-0.004-1.356c-0.012-0.492-0.023-0.941-0.035-1.359c-0.012-0.423-0.02-0.781-0.027-1.08
		c-0.008-0.302-0.008-0.501-0.008-0.57h2.393c0,0.052,0.006,0.25,0.033,0.59c0.008,0.359,0.031,0.758,0.047,1.197
		c0.016,0.442,0.035,0.873,0.063,1.32c0.008,0.43,0.023,0.771,0.023,1.002h0.07c0.816-1.5,1.82-2.62,2.994-3.353
		c1.17-0.729,2.592-1.087,4.246-1.087c1.314,0,2.434,0.199,3.338,0.62c0.906,0.409,1.643,0.969,2.201,1.678
		c0.549,0.711,0.949,1.54,1.201,2.499c0.246,0.941,0.367,1.951,0.367,3.012v12.016H554.707z"/>
	<path d="M586.279,437.122v14.774c0,2.99-0.783,5.287-2.346,6.878c-1.568,1.579-3.84,2.37-6.795,2.37
		c-1.26,0-2.369-0.113-3.334-0.342c-0.949-0.238-1.773-0.577-2.463-1.012c-0.691-0.428-1.256-0.938-1.689-1.525
		c-0.443-0.6-0.768-1.271-0.973-2.02l2.588-0.43c0.334,1.009,0.988,1.826,1.984,2.449c0.977,0.607,2.285,0.918,3.916,0.918
		c1.02,0,1.922-0.149,2.721-0.438c0.799-0.303,1.473-0.74,2.039-1.33c0.549-0.583,0.984-1.322,1.289-2.231
		c0.299-0.899,0.453-1.957,0.453-3.168c0-0.31,0-0.673,0.016-1.06c0.02-0.39,0.02-0.76,0.02-1.121V448.6h-0.035
		c-0.732,1.348-1.693,2.357-2.902,3.055c-1.201,0.691-2.75,1.031-4.629,1.031c-1.41,0-2.635-0.25-3.662-0.75
		c-1.043-0.498-1.895-1.199-2.564-2.089c-0.676-0.901-1.18-1.958-1.512-3.167c-0.342-1.223-0.5-2.543-0.5-3.98
		c0-1.461,0.17-2.799,0.516-4.027c0.344-1.23,0.879-2.29,1.6-3.191c0.729-0.898,1.623-1.586,2.709-2.098
		c1.072-0.51,2.34-0.76,3.781-0.76c1.686,0,3.15,0.349,4.383,1.07c1.225,0.709,2.154,1.658,2.781,2.869h0.035
		c0-0.342,0-0.721,0.027-1.13c0.008-0.399,0.023-0.79,0.055-1.14c0.012-0.361,0.051-0.672,0.063-0.91
		c0.031-0.25,0.043-0.39,0.043-0.43h2.463c0,0.069-0.004,0.238-0.016,0.49c0,0.25-0.016,0.568-0.02,0.939
		c-0.014,0.369-0.021,0.788-0.029,1.259C586.279,436.12,586.279,436.61,586.279,437.122z M583.744,442.58
		c0-1.449-0.178-2.689-0.543-3.699c-0.348-1.01-0.828-1.838-1.438-2.471c-0.584-0.639-1.285-1.098-2.076-1.377
		c-0.807-0.293-1.643-0.43-2.52-0.43c-2.119,0-3.746,0.699-4.889,2.1c-1.129,1.396-1.697,3.408-1.697,5.996
		c0,1.229,0.131,2.329,0.391,3.317c0.279,0.982,0.678,1.812,1.221,2.499c0.543,0.703,1.229,1.23,2.047,1.612
		c0.813,0.38,1.785,0.56,2.898,0.56c0.875,0,1.711-0.141,2.506-0.42c0.795-0.291,1.496-0.738,2.107-1.382
		c0.613-0.638,1.102-1.468,1.449-2.507C583.566,445.338,583.744,444.069,583.744,442.58z"/>
	<path d="M598.229,452.447v-27.762h2.635v27.762H598.229z"/>
	<path d="M619.959,453.985c-0.484,1.229-0.957,2.28-1.418,3.179c-0.461,0.909-0.945,1.648-1.438,2.24
		c-0.508,0.589-1.039,1.02-1.609,1.31c-0.568,0.288-1.178,0.431-1.844,0.431c-0.91,0-1.658-0.053-2.268-0.171v-2.089
		c0.221,0.059,0.473,0.09,0.76,0.13c0.271,0.029,0.516,0.036,0.748,0.036c0.984,0,1.842-0.477,2.555-1.456
		c0.729-0.971,1.43-2.36,2.104-4.169l0.34-0.979l-7.779-19.494h2.781l4.057,10.926c0.02,0.02,0.09,0.19,0.205,0.498
		c0.117,0.322,0.26,0.69,0.416,1.132c0.162,0.44,0.344,0.909,0.545,1.399c0.184,0.51,0.357,0.98,0.516,1.43
		c0.156,0.439,0.295,0.81,0.412,1.107c0.104,0.313,0.17,0.49,0.178,0.543c0.012-0.053,0.074-0.23,0.174-0.523
		c0.109-0.306,0.244-0.676,0.4-1.098c0.162-0.429,0.336-0.879,0.537-1.378c0.184-0.502,0.365-0.961,0.531-1.392
		c0.166-0.43,0.299-0.798,0.418-1.098c0.105-0.311,0.164-0.48,0.176-0.531l4.129-11.016h2.764L619.959,453.985z"/>
	<path d="M669.986,434.752c-0.867,0-1.639,0.221-2.293,0.659c-0.668,0.431-1.213,1.011-1.65,1.729
		c-0.443,0.73-0.768,1.561-0.984,2.5c-0.213,0.949-0.322,1.93-0.322,2.939v9.867h-2.635v-14.664c0-0.433,0-0.901-0.008-1.441
		c0-0.531-0.012-1.029-0.023-1.518c-0.016-0.482-0.027-0.893-0.027-1.242c-0.016-0.339-0.016-0.56-0.016-0.629h2.391
		c0,0.052,0.012,0.261,0.035,0.629c0.016,0.39,0.039,0.811,0.055,1.279c0.02,0.482,0.039,0.961,0.051,1.441
		c0.02,0.49,0.027,0.848,0.027,1.088h0.08c0.252-0.8,0.555-1.499,0.885-2.1c0.332-0.599,0.742-1.087,1.197-1.469
		c0.473-0.398,1.01-0.689,1.611-0.889c0.596-0.209,1.283-0.311,2.057-0.311c0.57,0,1.02,0.072,1.354,0.199v2.15
		c-0.229-0.088-0.488-0.148-0.791-0.182C670.676,434.76,670.348,434.752,669.986,434.752z"/>
	<path d="M682.332,443.248c0,1.069,0.131,2.07,0.402,3.001c0.264,0.938,0.674,1.737,1.229,2.418
		c0.551,0.671,1.256,1.199,2.107,1.601c0.861,0.389,1.877,0.588,3.063,0.588c1.498,0,2.766-0.328,3.801-0.979
		c1.035-0.657,1.752-1.538,2.15-2.63l2.449,0.422c-0.209,0.549-0.52,1.121-0.93,1.739c-0.408,0.601-0.934,1.16-1.609,1.66
		c-0.662,0.498-1.482,0.921-2.451,1.259c-0.973,0.342-2.145,0.51-3.508,0.51c-1.426,0-2.729-0.221-3.891-0.658
		c-1.162-0.441-2.139-1.091-2.945-1.961c-0.816-0.869-1.434-1.939-1.887-3.211c-0.441-1.268-0.662-2.748-0.662-4.426
		c0-1.868,0.268-3.43,0.807-4.701c0.531-1.269,1.24-2.297,2.115-3.088c0.879-0.779,1.875-1.338,2.992-1.668
		c1.119-0.332,2.246-0.5,3.396-0.5c1.547,0,2.883,0.238,4,0.74c1.123,0.5,2.045,1.188,2.762,2.076
		c0.725,0.902,1.264,1.951,1.605,3.18c0.344,1.221,0.52,2.56,0.52,4.032v0.597H682.332z M688.961,434.604
		c-0.824,0-1.631,0.119-2.395,0.357c-0.77,0.24-1.461,0.633-2.061,1.171c-0.594,0.54-1.086,1.229-1.473,2.081
		c-0.375,0.848-0.59,1.887-0.646,3.107h12.871c-0.076-1.031-0.252-1.969-0.531-2.79c-0.277-0.829-0.67-1.54-1.182-2.12
		c-0.518-0.568-1.146-1.019-1.898-1.34C690.891,434.752,689.996,434.604,688.961,434.604z"/>
	<path d="M711.672,435.012v17.436h-2.6v-17.436h-2.863v-2.059h2.863v-3.002c0-0.738,0.066-1.426,0.189-2.057
		c0.121-0.641,0.354-1.189,0.686-1.659c0.33-0.479,0.799-0.86,1.398-1.13c0.598-0.271,1.361-0.41,2.299-0.41
		c0.355,0,0.725,0.02,1.092,0.061c0.377,0.03,0.695,0.079,0.965,0.129v2.02c-0.209-0.039-0.453-0.068-0.729-0.1
		c-0.277-0.041-0.541-0.05-0.785-0.05c-0.52,0-0.938,0.081-1.275,0.238c-0.326,0.161-0.578,0.382-0.775,0.661
		c-0.189,0.292-0.316,0.65-0.371,1.068c-0.066,0.423-0.094,0.901-0.094,1.42v2.811h4.029v2.059H711.672z"/>
	<path d="M732.709,434.752c-0.869,0-1.646,0.221-2.311,0.659c-0.654,0.431-1.205,1.011-1.65,1.729c-0.43,0.73-0.76,1.561-0.973,2.5
		c-0.221,0.949-0.32,1.93-0.32,2.939v9.867h-2.631v-14.664c0-0.433-0.012-0.901-0.012-1.441c-0.004-0.531-0.012-1.029-0.023-1.518
		c-0.027-0.482-0.027-0.893-0.031-1.242c-0.012-0.339-0.012-0.56-0.012-0.629h2.391c0,0.052,0.008,0.261,0.043,0.629
		c0.008,0.39,0.023,0.811,0.047,1.279c0.018,0.482,0.025,0.961,0.049,1.441c0.012,0.49,0.027,0.848,0.027,1.088h0.074
		c0.256-0.8,0.555-1.499,0.887-2.1c0.334-0.599,0.736-1.087,1.205-1.469c0.465-0.398,1.004-0.689,1.605-0.889
		c0.596-0.209,1.285-0.311,2.053-0.311c0.574,0,1.023,0.072,1.355,0.199v2.15c-0.217-0.088-0.484-0.148-0.789-0.182
		C733.391,434.76,733.064,434.752,732.709,434.752z"/>
	<path d="M745.051,443.248c0,1.069,0.131,2.07,0.395,3.001c0.271,0.938,0.674,1.737,1.236,2.418c0.555,0.671,1.26,1.199,2.107,1.601
		c0.85,0.389,1.871,0.588,3.057,0.588c1.504,0,2.775-0.328,3.803-0.979c1.029-0.657,1.75-1.538,2.154-2.63l2.438,0.422
		c-0.199,0.549-0.512,1.121-0.924,1.739c-0.402,0.601-0.938,1.16-1.604,1.66c-0.666,0.498-1.484,0.921-2.457,1.259
		c-0.969,0.342-2.131,0.51-3.51,0.51c-1.434,0-2.721-0.221-3.883-0.658c-1.162-0.441-2.143-1.091-2.953-1.961
		c-0.809-0.869-1.434-1.939-1.883-3.211c-0.441-1.268-0.658-2.748-0.658-4.426c0-1.868,0.264-3.43,0.801-4.701
		c0.531-1.269,1.24-2.297,2.121-3.088c0.875-0.779,1.875-1.338,2.99-1.668c1.113-0.332,2.252-0.5,3.391-0.5
		c1.555,0,2.875,0.238,4.002,0.74c1.125,0.5,2.043,1.188,2.768,2.076c0.721,0.902,1.26,1.951,1.6,3.18
		c0.346,1.221,0.523,2.56,0.523,4.032v0.597H745.051z M751.672,434.604c-0.82,0-1.615,0.119-2.398,0.357
		c-0.764,0.24-1.449,0.633-2.045,1.171c-0.602,0.54-1.094,1.229-1.477,2.081c-0.381,0.848-0.602,1.887-0.641,3.107h12.857
		c-0.066-1.031-0.252-1.969-0.527-2.79c-0.275-0.829-0.67-1.54-1.178-2.12c-0.516-0.568-1.15-1.019-1.898-1.34
		C753.605,434.752,752.715,434.604,751.672,434.604z"/>
	<path d="M785.787,447.037c0,0.901-0.176,1.711-0.535,2.428c-0.357,0.701-0.877,1.313-1.563,1.813
		c-0.686,0.501-1.525,0.879-2.514,1.158c-0.996,0.27-2.135,0.4-3.402,0.4c-1.143,0-2.162-0.079-3.084-0.252
		c-0.92-0.168-1.725-0.428-2.426-0.828c-0.693-0.371-1.287-0.891-1.752-1.539c-0.469-0.65-0.811-1.439-1.031-2.398l2.441-0.543
		c0.174,0.752,0.422,1.354,0.771,1.822c0.332,0.469,0.764,0.838,1.268,1.107c0.506,0.273,1.072,0.451,1.719,0.553
		c0.641,0.091,1.334,0.139,2.094,0.139c0.793,0,1.514-0.071,2.197-0.209c0.67-0.148,1.254-0.37,1.75-0.67
		c0.496-0.291,0.893-0.661,1.172-1.12c0.285-0.44,0.418-0.979,0.418-1.622c0-0.668-0.182-1.217-0.527-1.637
		c-0.357-0.42-0.83-0.77-1.418-1.06c-0.594-0.281-1.275-0.52-2.055-0.71c-0.781-0.199-1.584-0.381-2.434-0.568
		c-0.801-0.202-1.611-0.411-2.391-0.633c-0.781-0.23-1.482-0.54-2.107-0.93c-0.611-0.387-1.111-0.877-1.492-1.469
		c-0.387-0.6-0.576-1.34-0.576-2.229c0-1.678,0.643-3.007,1.926-3.978c1.281-0.961,3.162-1.439,5.629-1.439
		c0.949,0,1.834,0.09,2.67,0.27c0.814,0.189,1.563,0.48,2.213,0.869c0.654,0.391,1.205,0.891,1.65,1.5
		c0.441,0.63,0.752,1.358,0.914,2.211l-2.41,0.311c-0.111-0.621-0.324-1.133-0.635-1.543c-0.303-0.418-0.689-0.74-1.143-0.988
		c-0.461-0.25-0.973-0.428-1.52-0.529c-0.551-0.111-1.135-0.16-1.74-0.16c-1.689,0-2.963,0.291-3.809,0.87
		c-0.855,0.579-1.277,1.368-1.277,2.351c0,0.598,0.139,1.086,0.434,1.479c0.279,0.378,0.678,0.709,1.193,0.967
		c0.504,0.262,1.115,0.482,1.828,0.671c0.717,0.182,1.508,0.369,2.371,0.568c0.869,0.2,1.725,0.421,2.586,0.659
		c0.859,0.242,1.623,0.571,2.309,0.971c0.686,0.411,1.24,0.921,1.662,1.56C785.576,445.278,785.787,446.076,785.787,447.037z"/>
	<path d="M810.57,452.447v-11.716c0-0.913-0.102-1.741-0.295-2.499c-0.197-0.74-0.516-1.38-0.957-1.922
		c-0.438-0.539-1.004-0.947-1.705-1.24c-0.693-0.287-1.52-0.428-2.488-0.428c-0.906,0-1.754,0.17-2.518,0.54
		c-0.764,0.349-1.426,0.841-1.984,1.46c-0.551,0.617-0.98,1.338-1.287,2.178c-0.309,0.842-0.469,1.738-0.469,2.709v10.918h-2.623
		v-27.762h2.623v8.396c0,0.441,0,0.872-0.016,1.32c-0.027,0.451-0.051,0.859-0.057,1.239c-0.023,0.382-0.027,0.7-0.035,0.961
		c-0.023,0.258-0.043,0.419-0.043,0.46h0.078c0.816-1.5,1.82-2.62,2.986-3.353c1.186-0.729,2.596-1.087,4.25-1.087
		c1.26,0,2.338,0.18,3.232,0.531c0.895,0.369,1.623,0.857,2.205,1.517c0.57,0.651,1,1.431,1.268,2.343
		c0.275,0.908,0.402,1.928,0.402,3.066v12.367H810.57z"/>
	<path d="M824.93,427.685v-2.999h2.631v2.999H824.93z M824.93,452.447v-19.494h2.631v19.494H824.93z"/>
	<path d="M853.82,452.447v-11.418c0-0.918-0.1-1.767-0.291-2.547c-0.189-0.781-0.5-1.461-0.938-2.041
		c-0.43-0.571-0.984-1.019-1.689-1.328c-0.682-0.322-1.529-0.471-2.533-0.471c-0.906,0-1.748,0.17-2.512,0.54
		c-0.764,0.349-1.43,0.841-1.98,1.46c-0.549,0.617-0.994,1.338-1.301,2.178c-0.303,0.842-0.457,1.738-0.457,2.709v10.918h-2.635
		v-15.128c0-0.407,0-0.866-0.004-1.356c-0.004-0.492-0.012-0.941-0.023-1.359c-0.02-0.423-0.027-0.781-0.027-1.08
		c-0.012-0.302-0.012-0.501-0.012-0.57h2.391c0,0.052,0.012,0.25,0.027,0.59c0.023,0.359,0.031,0.758,0.047,1.197
		c0.027,0.442,0.041,0.873,0.061,1.32c0.023,0.43,0.035,0.771,0.035,1.002h0.066c0.814-1.5,1.813-2.62,2.992-3.353
		c1.178-0.729,2.592-1.087,4.246-1.087c1.32,0,2.438,0.199,3.336,0.62c0.91,0.409,1.639,0.969,2.197,1.678
		c0.563,0.711,0.961,1.54,1.205,2.499c0.248,0.941,0.371,1.951,0.371,3.012v12.016H853.82z"/>
	<path d="M885.393,437.122v14.774c0,2.99-0.783,5.287-2.348,6.878c-1.57,1.579-3.84,2.37-6.801,2.37
		c-1.252,0-2.359-0.113-3.32-0.342c-0.957-0.238-1.779-0.577-2.477-1.012c-0.686-0.428-1.248-0.938-1.689-1.525
		c-0.438-0.6-0.764-1.271-0.973-2.02l2.596-0.43c0.334,1.009,0.992,1.826,1.977,2.449c0.988,0.607,2.303,0.918,3.93,0.918
		c1.008,0,1.922-0.149,2.709-0.438c0.797-0.303,1.473-0.74,2.037-1.33c0.563-0.583,0.992-1.322,1.291-2.231
		c0.307-0.899,0.453-1.957,0.453-3.168c0-0.31,0.02-0.673,0.023-1.06c0.02-0.39,0.023-0.76,0.023-1.121V448.6h-0.047
		c-0.721,1.348-1.693,2.357-2.891,3.055c-1.205,0.691-2.752,1.031-4.639,1.031c-1.406,0-2.631-0.25-3.666-0.75
		c-1.033-0.498-1.895-1.199-2.561-2.089c-0.678-0.901-1.178-1.958-1.516-3.167c-0.328-1.223-0.496-2.543-0.496-3.98
		c0-1.461,0.168-2.799,0.52-4.027c0.346-1.23,0.881-2.29,1.605-3.191c0.717-0.898,1.619-1.586,2.695-2.098
		c1.086-0.51,2.346-0.76,3.787-0.76c1.697,0,3.154,0.349,4.377,1.07c1.232,0.709,2.16,1.658,2.783,2.869h0.047
		c0-0.342,0-0.721,0.016-1.13c0.012-0.399,0.031-0.79,0.053-1.14c0.031-0.361,0.051-0.672,0.078-0.91
		c0.023-0.25,0.027-0.39,0.027-0.43h2.465c0,0.069,0,0.238,0,0.49c-0.012,0.25-0.02,0.568-0.035,0.939
		c-0.008,0.369-0.02,0.788-0.031,1.259C885.396,436.12,885.393,436.61,885.393,437.122z M882.863,442.58
		c0-1.449-0.188-2.689-0.543-3.699c-0.361-1.01-0.838-1.838-1.434-2.471c-0.602-0.639-1.303-1.098-2.094-1.377
		c-0.793-0.293-1.635-0.43-2.506-0.43c-2.127,0-3.756,0.699-4.891,2.1c-1.135,1.396-1.701,3.408-1.701,5.996
		c0,1.229,0.133,2.329,0.4,3.317c0.262,0.982,0.67,1.812,1.205,2.499c0.549,0.703,1.23,1.23,2.045,1.612
		c0.826,0.38,1.799,0.56,2.898,0.56c0.875,0,1.717-0.141,2.512-0.42c0.801-0.291,1.502-0.738,2.115-1.382
		c0.604-0.638,1.088-1.468,1.449-2.507C882.676,445.338,882.863,444.069,882.863,442.58z"/>
	<path d="M922.92,452.447v-26.911h2.752v26.911H922.92z"/>
	<path d="M947.572,427.855v24.592h-2.793v-24.592h-9.463v-2.319h21.703v2.319H947.572z"/>
</g>
</svg>
